<svg width="655" height="418" viewBox="0 0 655 418" fill="none" xmlns="http://www.w3.org/2000/svg">
<path d="M124.2 295.9H73.5C54.1 295.9 40.1 291.9 31.5 283.9C23.1 275.7 18.9 263.1 18.9 246.1V140.8C18.9 137 19.7 134.3 21.3 132.7C23.1 130.9 25.9 130 29.7 130H76.2C80 130 82.7 130.9 84.3 132.7C86.1 134.3 87 137 87 140.8V223C87 226.2 87.8 228.7 89.4 230.5C91.2 232.3 93.5 233.2 96.3 233.2H124.2V140.8C124.2 137 125 134.3 126.6 132.7C128.4 130.9 131.2 130 135 130H181.2C185 130 187.7 130.9 189.3 132.7C191.1 134.3 192 137 192 140.8V335.2C192 339 191.1 341.8 189.3 343.6C187.7 345.2 185 346 181.2 346H135C131.2 346 128.4 345.2 126.6 343.6C125 341.8 124.2 339 124.2 335.2V295.9Z" fill="#53C1F0"/>
<path d="M488.5 289.3H563.8C568.6 289.3 571.7 288.4 573.1 286.6C574.5 284.8 575.2 282.7 575.2 280.3V272.2C575.2 269.8 574.5 267.8 573.1 266.2C571.7 264.4 568.6 263.5 563.8 263.5H512.8C509 263.5 506.2 262.7 504.4 261.1C502.8 259.3 502 256.5 502 252.7V220.6C502 216.8 502.8 214.1 504.4 212.5C506.2 210.7 509 209.8 512.8 209.8H544.3C549.1 209.8 552.2 208.9 553.6 207.1C555 205.3 555.7 203.2 555.7 200.8V196.3C555.7 193.9 555 191.8 553.6 190C552.2 188.2 549.1 187.3 544.3 187.3H488.5C484.7 187.3 481.9 186.5 480.1 184.9C478.5 183.1 477.7 180.3 477.7 176.5V140.8C477.7 137 478.5 134.3 480.1 132.7C481.9 130.9 484.7 130 488.5 130H572.2C588.8 130 601.1 133.9 609.1 141.7C617.3 149.3 621.4 159.7 621.4 172.9V190.3C621.4 197.9 620.1 204.5 617.5 210.1C614.9 215.7 610.3 219.9 603.7 222.7C617.9 224.3 627.7 228.7 633.1 235.9C638.7 242.9 641.5 253 641.5 266.2V296.2C641.5 311.6 636.6 323.8 626.8 332.8C617 341.6 602.5 346 583.3 346H488.5C484.7 346 481.9 345.2 480.1 343.6C478.5 341.8 477.7 339 477.7 335.2V300.1C477.7 296.3 478.5 293.6 480.1 292C481.9 290.2 484.7 289.3 488.5 289.3Z" fill="#53C1F0"/>
<path d="M339.5 34.2188C295.643 34.2188 259.656 70.2055 259.656 114.062V146.855C248.828 157.441 240.223 170.082 234.347 184.038C228.471 197.994 225.442 212.983 225.438 228.125C225.438 290.973 276.652 342.188 339.5 342.188C402.348 342.188 453.562 290.973 453.562 228.125C453.558 212.983 450.529 197.994 444.653 184.038C438.777 170.082 430.172 157.441 419.344 146.855V114.062C419.344 70.2055 383.357 34.2188 339.5 34.2188ZM339.5 57.0312C370.924 57.0312 396.531 82.6383 396.531 114.062V129.746C379.707 119.937 360.328 114.062 339.5 114.062C318.672 114.062 299.293 119.948 282.469 129.746V114.062C282.469 82.6383 308.076 57.0312 339.5 57.0312ZM339.5 136.875C390.03 136.875 430.75 177.595 430.75 228.125C430.75 278.655 390.03 319.375 339.5 319.375C288.97 319.375 248.25 278.655 248.25 228.125C248.25 177.595 288.97 136.875 339.5 136.875ZM339.5 205.312C333.45 205.312 327.647 207.716 323.369 211.994C319.091 216.272 316.688 222.075 316.688 228.125C316.688 236.566 321.284 243.786 328.094 247.744V285.156H350.906V247.744C357.716 243.786 362.312 236.566 362.312 228.125C362.312 222.075 359.909 216.272 355.631 211.994C351.353 207.716 345.55 205.312 339.5 205.312Z" fill="#53C1F0"/>
<circle cx="340.5" cy="228.5" r="118.5" fill="#53C1F0" fill-opacity="0.4" stroke="#53C1F0" stroke-width="20"/>
</svg>
