<svg width="624" height="365" viewBox="0 0 624 365" fill="none" xmlns="http://www.w3.org/2000/svg">
<path d="M106.2 295.9H55.4999C36.0999 295.9 22.0999 291.9 13.4999 283.9C5.0999 275.7 0.899902 263.1 0.899902 246.1V140.8C0.899902 137 1.6999 134.3 3.2999 132.7C5.0999 130.9 7.89991 130 11.6999 130H58.1999C61.9999 130 64.6999 130.9 66.2999 132.7C68.0999 134.3 68.9999 137 68.9999 140.8V223C68.9999 226.2 69.7999 228.7 71.3999 230.5C73.1999 232.3 75.4999 233.2 78.2999 233.2H106.2V140.8C106.2 137 107 134.3 108.6 132.7C110.4 130.9 113.2 130 117 130H163.2C167 130 169.7 130.9 171.3 132.7C173.1 134.3 174 137 174 140.8V335.2C174 339 173.1 341.8 171.3 343.6C169.7 345.2 167 346 163.2 346H117C113.2 346 110.4 345.2 108.6 343.6C107 341.8 106.2 339 106.2 335.2V295.9Z" fill="#53C1F0"/>
<path d="M470.5 289.3H545.8C550.6 289.3 553.7 288.4 555.1 286.6C556.5 284.8 557.2 282.7 557.2 280.3V272.2C557.2 269.8 556.5 267.8 555.1 266.2C553.7 264.4 550.6 263.5 545.8 263.5H494.8C491 263.5 488.2 262.7 486.4 261.1C484.8 259.3 484 256.5 484 252.7V220.6C484 216.8 484.8 214.1 486.4 212.5C488.2 210.7 491 209.8 494.8 209.8H526.3C531.1 209.8 534.2 208.9 535.6 207.1C537 205.3 537.7 203.2 537.7 200.8V196.3C537.7 193.9 537 191.8 535.6 190C534.2 188.2 531.1 187.3 526.3 187.3H470.5C466.7 187.3 463.9 186.5 462.1 184.9C460.5 183.1 459.7 180.3 459.7 176.5V140.8C459.7 137 460.5 134.3 462.1 132.7C463.9 130.9 466.7 130 470.5 130H554.2C570.8 130 583.1 133.9 591.1 141.7C599.3 149.3 603.4 159.7 603.4 172.9V190.3C603.4 197.9 602.1 204.5 599.5 210.1C596.9 215.7 592.3 219.9 585.7 222.7C599.9 224.3 609.7 228.7 615.1 235.9C620.7 242.9 623.5 253 623.5 266.2V296.2C623.5 311.6 618.6 323.8 608.8 332.8C599 341.6 584.5 346 565.3 346H470.5C466.7 346 463.9 345.2 462.1 343.6C460.5 341.8 459.7 339 459.7 335.2V300.1C459.7 296.3 460.5 293.6 462.1 292C463.9 290.2 466.7 289.3 470.5 289.3Z" fill="#53C1F0"/>
<path d="M321.5 34.2188C277.643 34.2188 241.656 70.2055 241.656 114.062V146.855C230.828 157.441 222.223 170.082 216.347 184.038C210.471 197.994 207.442 212.983 207.438 228.125C207.438 290.973 258.652 342.188 321.5 342.188C384.348 342.188 435.562 290.973 435.562 228.125C435.558 212.983 432.529 197.994 426.653 184.038C420.777 170.082 412.172 157.441 401.344 146.855V114.062C401.344 70.2055 365.357 34.2188 321.5 34.2188ZM321.5 57.0312C352.924 57.0312 378.531 82.6383 378.531 114.062V129.746C361.707 119.937 342.328 114.062 321.5 114.062C300.672 114.062 281.293 119.948 264.469 129.746V114.062C264.469 82.6383 290.076 57.0312 321.5 57.0312ZM321.5 136.875C372.03 136.875 412.75 177.595 412.75 228.125C412.75 278.655 372.03 319.375 321.5 319.375C270.97 319.375 230.25 278.655 230.25 228.125C230.25 177.595 270.97 136.875 321.5 136.875ZM321.5 205.312C315.45 205.312 309.647 207.716 305.369 211.994C301.091 216.272 298.688 222.075 298.688 228.125C298.688 236.566 303.284 243.786 310.094 247.744V285.156H332.906V247.744C339.716 243.786 344.312 236.566 344.312 228.125C344.312 222.075 341.909 216.272 337.631 211.994C333.353 207.716 327.55 205.312 321.5 205.312Z" fill="#53C1F0"/>
<circle cx="322.5" cy="228.5" r="118.5" fill="#53C1F0" fill-opacity="0.4" stroke="#53C1F0" stroke-width="20"/>
</svg>
