<svg width="676" height="416" viewBox="0 0 676 416" fill="none" xmlns="http://www.w3.org/2000/svg">
<path d="M124.2 293.9H73.5C54.1 293.9 40.1 289.9 31.5 281.9C23.1 273.7 18.9 261.1 18.9 244.1V138.8C18.9 135 19.7 132.3 21.3 130.7C23.1 128.9 25.9 128 29.7 128H76.2C80 128 82.7 128.9 84.3 130.7C86.1 132.3 87 135 87 138.8V221C87 224.2 87.8 226.7 89.4 228.5C91.2 230.3 93.5 231.2 96.3 231.2H124.2V138.8C124.2 135 125 132.3 126.6 130.7C128.4 128.9 131.2 128 135 128H181.2C185 128 187.7 128.9 189.3 130.7C191.1 132.3 192 135 192 138.8V333.2C192 337 191.1 339.8 189.3 341.6C187.7 343.2 185 344 181.2 344H135C131.2 344 128.4 343.2 126.6 341.6C125 339.8 124.2 337 124.2 333.2V293.9Z" fill="#53C1F0"/>
<path d="M587.2 293.9H536.5C517.1 293.9 503.1 289.9 494.5 281.9C486.1 273.7 481.9 261.1 481.9 244.1V138.8C481.9 135 482.7 132.3 484.3 130.7C486.1 128.9 488.9 128 492.7 128H539.2C543 128 545.7 128.9 547.3 130.7C549.1 132.3 550 135 550 138.8V221C550 224.2 550.8 226.7 552.4 228.5C554.2 230.3 556.5 231.2 559.3 231.2H587.2V138.8C587.2 135 588 132.3 589.6 130.7C591.4 128.9 594.2 128 598 128H644.2C648 128 650.7 128.9 652.3 130.7C654.1 132.3 655 135 655 138.8V333.2C655 337 654.1 339.8 652.3 341.6C650.7 343.2 648 344 644.2 344H598C594.2 344 591.4 343.2 589.6 341.6C588 339.8 587.2 337 587.2 333.2V293.9Z" fill="#53C1F0"/>
<rect x="431.177" y="159.288" width="33" height="47.225" transform="rotate(-135 431.177 159.288)" fill="#84BAD1"/>
<circle cx="333.5" cy="229.921" r="107.5" transform="rotate(-90 333.5 229.921)" fill="#53C1F0" fill-opacity="0.4"/>
<circle cx="334" cy="228" r="112.5" transform="rotate(-90 334 228)" stroke="#53C1F0" stroke-width="25"/>
<path opacity="0.76" d="M288.018 287.255C278.983 290.661 268.899 286.097 265.493 277.062L254.166 247.01C250.761 237.975 255.324 227.89 264.359 224.485C273.394 221.079 283.48 225.645 286.885 234.68C290.841 245.175 294.255 254.233 298.211 264.728C301.616 273.763 297.053 283.85 288.018 287.255Z" fill="white"/>
<path d="M408.411 233.894C403.243 235.842 397.475 233.232 395.527 228.064C393.579 222.896 396.189 217.128 401.357 215.18C406.525 213.232 412.294 215.842 414.242 221.01C416.189 226.178 413.579 231.947 408.411 233.894Z" fill="white"/>
<g clip-path="url(#clip0_903_5338)">
<rect x="460.36" y="141.421" width="50" height="150" rx="25" transform="rotate(-135 460.36 141.421)" fill="#23AAE3"/>
<rect x="453.498" y="131.279" width="41.7858" height="145.886" rx="20.8929" transform="rotate(-135 453.498 131.279)" fill="#53C1F0"/>
<rect x="446.215" y="120.562" width="38.3003" height="140.299" rx="19.1502" transform="rotate(-135 446.215 120.562)" fill="#68CFFB"/>
</g>
<defs>
<clipPath id="clip0_903_5338">
<rect x="460.36" y="141.421" width="50" height="150" rx="25" transform="rotate(-135 460.36 141.421)" fill="white"/>
</clipPath>
</defs>
</svg>
