<svg width="637" height="353" viewBox="0 0 637 353" fill="none" xmlns="http://www.w3.org/2000/svg">
<path d="M106.2 293.9H55.4999C36.0999 293.9 22.0999 289.9 13.4999 281.9C5.0999 273.7 0.899902 261.1 0.899902 244.1V138.8C0.899902 135 1.6999 132.3 3.2999 130.7C5.0999 128.9 7.89991 128 11.6999 128H58.1999C61.9999 128 64.6999 128.9 66.2999 130.7C68.0999 132.3 68.9999 135 68.9999 138.8V221C68.9999 224.2 69.7999 226.7 71.3999 228.5C73.1999 230.3 75.4999 231.2 78.2999 231.2H106.2V138.8C106.2 135 107 132.3 108.6 130.7C110.4 128.9 113.2 128 117 128H163.2C167 128 169.7 128.9 171.3 130.7C173.1 132.3 174 135 174 138.8V333.2C174 337 173.1 339.8 171.3 341.6C169.7 343.2 167 344 163.2 344H117C113.2 344 110.4 343.2 108.6 341.6C107 339.8 106.2 337 106.2 333.2V293.9Z" fill="#53C1F0"/>
<path d="M569.2 293.9H518.5C499.1 293.9 485.1 289.9 476.5 281.9C468.1 273.7 463.9 261.1 463.9 244.1V138.8C463.9 135 464.7 132.3 466.3 130.7C468.1 128.9 470.9 128 474.7 128H521.2C525 128 527.7 128.9 529.3 130.7C531.1 132.3 532 135 532 138.8V221C532 224.2 532.8 226.7 534.4 228.5C536.2 230.3 538.5 231.2 541.3 231.2H569.2V138.8C569.2 135 570 132.3 571.6 130.7C573.4 128.9 576.2 128 580 128H626.2C630 128 632.7 128.9 634.3 130.7C636.1 132.3 637 135 637 138.8V333.2C637 337 636.1 339.8 634.3 341.6C632.7 343.2 630 344 626.2 344H580C576.2 344 573.4 343.2 571.6 341.6C570 339.8 569.2 337 569.2 333.2V293.9Z" fill="#53C1F0"/>
<rect x="413.177" y="159.288" width="33" height="47.225" transform="rotate(-135 413.177 159.288)" fill="#84BAD1"/>
<circle cx="315.5" cy="229.921" r="107.5" transform="rotate(-90 315.5 229.921)" fill="#53C1F0" fill-opacity="0.4"/>
<circle cx="316" cy="228" r="112.5" transform="rotate(-90 316 228)" stroke="#53C1F0" stroke-width="25"/>
<path opacity="0.76" d="M270.018 287.255C260.983 290.661 250.899 286.097 247.493 277.062L236.166 247.01C232.761 237.975 237.324 227.89 246.359 224.485V224.485C255.394 221.079 265.48 225.645 268.885 234.68C272.841 245.175 276.255 254.233 280.211 264.728C283.616 273.763 279.053 283.85 270.018 287.255V287.255Z" fill="white"/>
<path d="M390.411 233.894C385.243 235.842 379.475 233.232 377.527 228.064V228.064C375.579 222.896 378.189 217.128 383.357 215.18V215.18C388.525 213.232 394.294 215.842 396.242 221.01V221.01C398.189 226.178 395.579 231.947 390.411 233.894V233.894Z" fill="white"/>
<g clip-path="url(#clip0_903_5338)">
<rect x="442.36" y="141.421" width="50" height="150" rx="25" transform="rotate(-135 442.36 141.421)" fill="#23AAE3"/>
<rect x="435.498" y="131.279" width="41.7858" height="145.886" rx="20.8929" transform="rotate(-135 435.498 131.279)" fill="#53C1F0"/>
<rect x="428.215" y="120.562" width="38.3003" height="140.299" rx="19.1502" transform="rotate(-135 428.215 120.562)" fill="#68CFFB"/>
</g>
<defs>
<clipPath id="clip0_903_5338">
<rect x="442.36" y="141.421" width="50" height="150" rx="25" transform="rotate(-135 442.36 141.421)" fill="white"/>
</clipPath>
</defs>
</svg>
