<svg width="391" height="438" viewBox="0 0 391 438" fill="none" xmlns="http://www.w3.org/2000/svg">
<rect x="40.483" y="110.313" width="242.863" height="325.151" stroke="#D0D5DD" stroke-width="4" stroke-dasharray="5 10"/>
<rect x="115.834" y="32.6085" width="246.863" height="329.151" fill="#D0D5DD"/>
<path d="M73.0439 75.3981H273.003L319.907 123.948V404.549H73.0439V75.3981Z" fill="#E4E7EC"/>
<path d="M273.826 124.771V75.3982L320.73 124.771H273.826Z" fill="#98A2B3"/>
<path d="M98.247 99.9199L104.065 94.1005C104.222 93.9487 104.347 93.7671 104.434 93.5663C104.52 93.3655 104.565 93.1496 104.567 92.9311C104.569 92.7125 104.527 92.4958 104.445 92.2936C104.362 92.0913 104.24 91.9076 104.085 91.753C103.931 91.5985 103.747 91.4763 103.545 91.3935C103.342 91.3108 103.126 91.2692 102.907 91.2711C102.689 91.273 102.473 91.3184 102.272 91.4046C102.071 91.4909 101.889 91.6162 101.738 91.7734L95.9183 97.5912L90.1005 91.7734C89.9487 91.6162 89.7671 91.4909 89.5663 91.4046C89.3655 91.3184 89.1496 91.273 88.9311 91.2711C88.7125 91.2692 88.4958 91.3108 88.2936 91.3935C88.0913 91.4763 87.9076 91.5985 87.753 91.753C87.5985 91.9076 87.4763 92.0913 87.3935 92.2936C87.3108 92.4958 87.2692 92.7125 87.2711 92.9311C87.273 93.1496 87.3184 93.3655 87.4046 93.5663C87.4909 93.7671 87.6162 93.9487 87.7734 94.1005L93.5912 99.9183L87.7734 105.738C87.6162 105.889 87.4909 106.071 87.4046 106.272C87.3184 106.473 87.273 106.689 87.2711 106.907C87.2692 107.126 87.3108 107.342 87.3935 107.545C87.4763 107.747 87.5985 107.931 87.753 108.085C87.9076 108.24 88.0913 108.362 88.2936 108.445C88.4958 108.527 88.7125 108.569 88.9311 108.567C89.1496 108.565 89.3655 108.52 89.5663 108.434C89.7671 108.347 89.9487 108.222 90.1005 108.065L95.9183 102.247L101.738 108.065C101.889 108.222 102.071 108.347 102.272 108.434C102.473 108.52 102.689 108.565 102.907 108.567C103.126 108.569 103.342 108.527 103.545 108.445C103.747 108.362 103.931 108.24 104.085 108.085C104.24 107.931 104.362 107.747 104.445 107.545C104.527 107.342 104.569 107.126 104.567 106.907C104.565 106.689 104.52 106.473 104.434 106.272C104.347 106.071 104.222 105.889 104.065 105.738L98.247 99.9199Z" fill="#98A2B3"/>
<path d="M155 346V336" stroke="#D0D5DD" stroke-width="30" stroke-linecap="square"/>
<path d="M196 346V316" stroke="#D0D5DD" stroke-width="30" stroke-linecap="square"/>
<path d="M237 346V292" stroke="#D0D5DD" stroke-width="30" stroke-linecap="square"/>
<g clip-path="url(#clip0_846_5417)">
<path fill-rule="evenodd" clip-rule="evenodd" d="M301.892 324.816C307.242 322.6 312.977 321.46 318.768 321.461C327.056 321.463 335.175 323.802 342.195 328.207C349.215 332.613 354.851 338.908 358.457 346.37C362.064 353.832 363.494 362.159 362.585 370.397C361.675 378.635 358.462 386.45 353.315 392.945L357.247 396.878C358.799 396.037 360.58 395.719 362.327 395.972C364.073 396.224 365.692 397.034 366.941 398.28L387.727 418.926C389.266 420.475 390.131 422.571 390.131 424.755C390.131 426.939 389.266 429.035 387.727 430.584L383.794 434.516C380.586 437.725 375.341 437.725 372.137 434.516L351.49 413.731C350.236 412.49 349.41 410.881 349.133 409.139C348.855 407.396 349.141 405.61 349.949 404.041L346.016 400.109C338.511 406.014 329.06 409.659 318.768 409.659C312.977 409.66 307.241 408.519 301.891 406.303C296.54 404.087 291.678 400.839 287.582 396.743C283.487 392.648 280.239 387.786 278.023 382.435C275.806 377.084 274.666 371.349 274.667 365.558C274.667 359.766 275.807 354.032 278.024 348.682C280.24 343.331 283.489 338.47 287.584 334.375C291.679 330.28 296.541 327.032 301.892 324.816ZM344.191 340.135C337.449 333.392 328.304 329.604 318.768 329.604C309.233 329.604 300.088 333.392 293.345 340.135C286.603 346.877 282.815 356.022 282.815 365.558C282.815 375.093 286.603 384.238 293.345 390.981C300.088 397.723 309.233 401.511 318.768 401.511C328.304 401.511 337.449 397.723 344.191 390.981C350.934 384.238 354.722 375.093 354.722 365.558C354.722 356.022 350.934 346.877 344.191 340.135Z" fill="#98A2B3"/>
<path d="M318.768 329.604C328.304 329.604 337.448 333.392 344.191 340.135C350.934 346.877 354.722 356.022 354.722 365.558C354.722 375.093 350.934 384.238 344.191 390.981C337.448 397.723 328.304 401.511 318.768 401.511C309.233 401.511 300.088 397.723 293.345 390.981C286.603 384.238 282.815 375.093 282.815 365.558C282.815 356.022 286.603 346.877 293.345 340.135C300.088 333.392 309.233 329.604 318.768 329.604V329.604Z" fill="white" fill-opacity="0.5"/>
<path d="M296.014 354.183C293.617 358.065 292.353 362.541 292.365 367.104C292.36 370.333 292.992 373.531 294.225 376.516C295.458 379.5 297.268 382.212 299.552 384.495C301.835 386.779 304.547 388.589 307.531 389.822C310.516 391.056 313.714 391.688 316.944 391.682C322.02 391.672 326.971 390.103 331.127 387.188C330.007 387.292 328.882 387.337 327.757 387.323C323.585 387.334 319.453 386.52 315.598 384.929C311.742 383.338 308.239 381 305.289 378.051C302.339 375.102 300.002 371.599 298.41 367.744C296.818 363.888 296.004 359.756 296.014 355.585C296.014 355.118 295.992 354.65 296.014 354.183V354.183Z" fill="white"/>
</g>
<rect x="137.228" y="197.184" width="16.4576" height="14.8118" rx="2" fill="#98A2B3"/>
<rect x="234.328" y="197.184" width="16.4576" height="14.8118" rx="2" fill="#98A2B3"/>
<path d="M222.808 243.265C222.808 229.631 209.913 218.579 194.007 218.579C178.101 218.579 165.206 229.631 165.206 243.265" stroke="#98A2B3" stroke-width="6" stroke-linecap="round"/>
<path d="M47.3941 14.7747C57.0966 28.3993 41.2994 38.2546 48.0073 47.674L48.0435 47.7249C48.8174 48.8116 48.5638 50.3197 47.4772 51.0935L39.2174 56.9756C38.1308 57.7494 36.6227 57.4959 35.8489 56.4092L35.4532 55.8536C25.0919 41.304 39.0389 32.7662 34.1876 25.954C32.0914 23.0104 28.647 22.8015 25.0307 25.3768C22.0886 27.4719 19.9984 30.8994 19.1377 35.4749C18.9171 36.6474 17.8523 37.4698 16.6605 37.4161L8.20274 37.0357C6.77736 36.9717 5.70489 35.6904 5.92007 34.2798C7.12576 26.375 11.0257 19.3794 18.83 13.8217C31.1929 5.01787 42.0637 7.28974 47.3941 14.7747V14.7747ZM62.0269 63.8011C65.0215 68.0063 64.113 73.85 59.824 76.9044C55.6188 79.8991 49.7152 78.9065 46.7206 74.7013C43.726 70.4963 44.7186 64.5927 48.9237 61.5981C53.213 58.5436 59.0324 59.5961 62.0269 63.8011Z" fill="#98A2B3"/>
<defs>
<clipPath id="clip0_846_5417">
<rect width="116.849" height="116.849" fill="white" transform="translate(273.826 320.616)"/>
</clipPath>
</defs>
</svg>
