<svg width="417" height="460" viewBox="0 0 417 460" fill="none" xmlns="http://www.w3.org/2000/svg">
<rect x="66.4831" y="132.313" width="242.863" height="325.151" stroke="#D0D5DD" stroke-width="4" stroke-dasharray="5 10"/>
<rect x="141.834" y="54.6085" width="246.863" height="329.151" fill="#D0D5DD"/>
<path d="M99.0439 97.3982H299.003L345.907 145.948V426.549H99.0439V97.3982Z" fill="#E4E7EC"/>
<path d="M299.826 146.771V97.3982L346.73 146.771H299.826Z" fill="#98A2B3"/>
<path d="M124.247 121.92L130.065 116.101C130.222 115.949 130.347 115.767 130.434 115.566C130.52 115.366 130.565 115.15 130.567 114.931C130.569 114.713 130.527 114.496 130.445 114.294C130.362 114.091 130.24 113.908 130.085 113.753C129.931 113.599 129.747 113.476 129.545 113.394C129.342 113.311 129.126 113.269 128.907 113.271C128.689 113.273 128.473 113.318 128.272 113.405C128.071 113.491 127.889 113.616 127.738 113.773L121.918 119.591L116.101 113.773C115.949 113.616 115.767 113.491 115.566 113.405C115.366 113.318 115.15 113.273 114.931 113.271C114.713 113.269 114.496 113.311 114.294 113.394C114.091 113.476 113.908 113.599 113.753 113.753C113.599 113.908 113.476 114.091 113.394 114.294C113.311 114.496 113.269 114.713 113.271 114.931C113.273 115.15 113.318 115.366 113.405 115.566C113.491 115.767 113.616 115.949 113.773 116.101L119.591 121.918L113.773 127.738C113.616 127.889 113.491 128.071 113.405 128.272C113.318 128.473 113.273 128.689 113.271 128.907C113.269 129.126 113.311 129.342 113.394 129.545C113.476 129.747 113.599 129.931 113.753 130.085C113.908 130.24 114.091 130.362 114.294 130.445C114.496 130.527 114.713 130.569 114.931 130.567C115.15 130.565 115.366 130.52 115.566 130.434C115.767 130.347 115.949 130.222 116.101 130.065L121.918 124.247L127.738 130.065C127.889 130.222 128.071 130.347 128.272 130.434C128.473 130.52 128.689 130.565 128.907 130.567C129.126 130.569 129.342 130.527 129.545 130.445C129.747 130.362 129.931 130.24 130.085 130.085C130.24 129.931 130.362 129.747 130.445 129.545C130.527 129.342 130.569 129.126 130.567 128.907C130.565 128.689 130.52 128.473 130.434 128.272C130.347 128.071 130.222 127.889 130.065 127.738L124.247 121.92Z" fill="#98A2B3"/>
<path d="M143.479 327.804H300.649" stroke="#D0D5DD" stroke-width="5" stroke-linecap="round"/>
<path d="M143.479 350.845H300.649" stroke="#D0D5DD" stroke-width="5" stroke-linecap="round"/>
<path d="M143.479 373.885H300.649" stroke="#D0D5DD" stroke-width="5" stroke-linecap="round"/>
<g clip-path="url(#clip0_845_5369)">
<path fill-rule="evenodd" clip-rule="evenodd" d="M327.892 346.816C333.242 344.6 338.977 343.46 344.768 343.461C353.056 343.463 361.175 345.802 368.195 350.207C375.215 354.613 380.851 360.908 384.457 368.37C388.064 375.832 389.494 384.159 388.585 392.397C387.675 400.635 384.462 408.45 379.315 414.945L383.247 418.878C384.799 418.037 386.58 417.719 388.327 417.972C390.073 418.224 391.692 419.034 392.941 420.28L413.727 440.926C415.266 442.475 416.131 444.571 416.131 446.755C416.131 448.939 415.266 451.035 413.727 452.584L409.794 456.516C406.586 459.725 401.341 459.725 398.137 456.516L377.49 435.731C376.236 434.49 375.41 432.881 375.133 431.139C374.855 429.396 375.141 427.61 375.949 426.041L372.016 422.109C364.511 428.014 355.06 431.659 344.768 431.659C338.977 431.66 333.241 430.519 327.891 428.303C322.54 426.087 317.678 422.839 313.582 418.743C309.487 414.648 306.239 409.786 304.023 404.435C301.806 399.084 300.666 393.349 300.667 387.558C300.667 381.766 301.807 376.032 304.024 370.682C306.24 365.331 309.489 360.47 313.584 356.375C317.679 352.28 322.541 349.032 327.892 346.816ZM370.191 362.135C363.449 355.392 354.304 351.604 344.768 351.604C335.233 351.604 326.088 355.392 319.345 362.135C312.603 368.877 308.815 378.022 308.815 387.558C308.815 397.093 312.603 406.238 319.345 412.981C326.088 419.723 335.233 423.511 344.768 423.511C354.304 423.511 363.449 419.723 370.191 412.981C376.934 406.238 380.722 397.093 380.722 387.558C380.722 378.022 376.934 368.877 370.191 362.135Z" fill="#98A2B3"/>
<path d="M344.768 351.604C354.304 351.604 363.448 355.392 370.191 362.135C376.934 368.877 380.722 378.022 380.722 387.558C380.722 397.093 376.934 406.238 370.191 412.981C363.448 419.723 354.304 423.511 344.768 423.511C335.233 423.511 326.088 419.723 319.345 412.981C312.603 406.238 308.815 397.093 308.815 387.558C308.815 378.022 312.603 368.877 319.345 362.135C326.088 355.392 335.233 351.604 344.768 351.604V351.604Z" fill="white" fill-opacity="0.5"/>
<path d="M322.014 376.183C319.617 380.065 318.353 384.541 318.365 389.104C318.36 392.333 318.992 395.531 320.225 398.516C321.458 401.5 323.268 404.212 325.552 406.495C327.835 408.779 330.547 410.589 333.531 411.822C336.516 413.056 339.714 413.688 342.944 413.682C348.02 413.672 352.971 412.103 357.127 409.188C356.007 409.292 354.882 409.337 353.757 409.323C349.585 409.334 345.453 408.52 341.598 406.929C337.742 405.338 334.239 403 331.289 400.051C328.339 397.102 326.002 393.599 324.41 389.744C322.818 385.888 322.004 381.756 322.014 377.585C322.014 377.118 321.992 376.65 322.014 376.183V376.183Z" fill="white"/>
</g>
<rect x="163.228" y="219.184" width="16.4576" height="14.8118" rx="2" fill="#98A2B3"/>
<rect x="260.328" y="219.184" width="16.4576" height="14.8118" rx="2" fill="#98A2B3"/>
<path d="M248.808 265.265C248.808 251.631 235.913 240.579 220.007 240.579C204.101 240.579 191.206 251.631 191.206 265.265" stroke="#98A2B3" stroke-width="6" stroke-linecap="round"/>
<g clip-path="url(#clip1_845_5369)">
<path d="M73.394 36.7747C83.0965 50.3993 67.2993 60.2546 74.0072 69.674L74.0435 69.7249C74.8173 70.8116 74.5638 72.3197 73.4771 73.0935L65.2174 78.9756C64.1307 79.7494 62.6227 79.4959 61.8488 78.4092L61.4532 77.8536C51.0919 63.304 65.0388 54.7662 60.1876 47.954C58.0914 45.0104 54.647 44.8015 51.0306 47.3768C48.0886 49.4719 45.9983 52.8994 45.1377 57.4749C44.9171 58.6474 43.8522 59.4698 42.6605 59.4161L34.2027 59.0357C32.7773 58.9717 31.7048 57.6904 31.92 56.2798C33.1257 48.375 37.0257 41.3794 44.8299 35.8217C57.1928 27.0179 68.0637 29.2897 73.394 36.7747V36.7747ZM88.0268 85.8011C91.0215 90.0063 90.113 95.85 85.8239 98.9044C81.6187 101.899 75.7151 100.906 72.7205 96.7013C69.726 92.4963 70.7185 86.5927 74.9237 83.5981C79.2129 80.5436 85.0323 81.5961 88.0268 85.8011Z" fill="#98A2B3"/>
</g>
<defs>
<clipPath id="clip0_845_5369">
<rect width="116.849" height="116.849" fill="white" transform="translate(299.826 342.616)"/>
</clipPath>
<clipPath id="clip1_845_5369">
<rect width="95.2088" height="95.2088" fill="white" transform="translate(0 55.2286) rotate(-35.4561)"/>
</clipPath>
</defs>
</svg>
